<?xml version="1.0" standalone="no"?>
<!DOCTYPE svg PUBLIC "-//W3C//DTD SVG 20010904//EN"
 "http://www.w3.org/TR/2001/REC-SVG-20010904/DTD/svg10.dtd">
<svg version="1.0" xmlns="http://www.w3.org/2000/svg"
 width="1200.000000pt" height="1424.000000pt" viewBox="0 0 1200.000000 1424.000000"
 preserveAspectRatio="xMidYMid meet">
<metadata>
Created by potrace 1.15, written by Peter Selinger 2001-2017
</metadata>
<g transform="translate(0.000000,1424.000000) scale(0.100000,-0.100000)"
fill="#000000" stroke="none">
<path d="M8774 14225 c-681 -100 -1449 -507 -1908 -1012 -483 -533 -783 -1161
-857 -1798 -13 -112 -16 -412 -5 -492 l8 -51 75 -7 c88 -9 256 0 403 21 416
59 821 248 1225 570 150 120 438 410 569 574 405 508 635 1029 701 1596 15
129 21 504 9 577 l-7 37 -61 -1 c-33 -1 -102 -7 -152 -14z"/>
<path d="M8510 10864 c-19 -2 -78 -9 -130 -15 -346 -39 -685 -130 -1255 -334
-489 -175 -777 -267 -944 -300 -73 -15 -87 -15 -173 0 -192 33 -415 101 -908
280 -458 165 -696 237 -960 289 -188 37 -297 47 -485 47 -878 -1 -1757 -368
-2414 -1006 -329 -320 -571 -658 -787 -1098 -228 -466 -362 -951 -431 -1572
-26 -229 -26 -980 0 -1235 76 -754 249 -1484 525 -2210 288 -761 617 -1379
1055 -1990 642 -893 1104 -1352 1590 -1579 223 -105 386 -141 636 -141 315 0
614 72 1126 270 366 141 593 208 868 255 568 96 1081 24 1752 -245 289 -117
561 -197 810 -241 187 -33 462 -33 623 -1 484 98 902 377 1356 908 311 362
696 896 922 1277 237 399 420 778 586 1212 85 221 134 362 128 368 -3 2 -79
40 -170 85 -597 294 -1118 785 -1429 1349 -315 568 -437 1299 -335 2003 50
345 173 706 340 999 138 241 297 443 520 661 173 168 312 280 524 422 91 60
166 113 168 118 2 4 -27 48 -64 97 -561 739 -1342 1162 -2404 1304 -147 19
-546 34 -640 23z"/>
</g>
</svg>
