<svg width="512" height="512" xmlns="http://www.w3.org/2000/svg">

 <g>
  <title>background</title>
  <rect fill="none" id="canvas_background" height="402" width="582" y="-1" x="-1"/>
 </g>
 <g>
  <title>Layer 1</title>
  <g id="svg_1">
   <g id="svg_2">
    <path fill="#ffffff" id="svg_3" d="m472.747,190.933l-238.933,0l46.08,-46.08c15.36,-15.36 15.36,-40.96 0,-56.32l-35.84,-37.547c-15.36,-15.36 -40.96,-15.36 -56.32,0l-175.787,175.786c-6.827,8.534 -11.947,18.774 -11.947,29.014c0,11.947 3.413,22.186 11.947,30.72l175.787,174.08c6.827,6.827 17.067,11.947 29.013,11.947c10.24,0 20.48,-3.413 27.307,-11.947l35.84,-35.84c15.36,-15.36 15.36,-40.96 0,-56.32l-49.494,-47.786l242.347,0c22.186,0 39.253,-18.774 39.253,-40.96l0,-49.493c0,-22.187 -17.067,-39.254 -39.253,-39.254zm6.826,88.747l-1.706,0c0,3.413 -3.413,6.827 -5.12,6.827l-283.307,0c-6.827,0 -13.653,3.413 -15.36,10.24c-3.413,6.827 -1.707,13.653 3.413,18.774l78.507,76.8c1.707,1.707 1.707,5.12 0,8.534l-35.84,35.84c-1.707,1.707 -5.12,3.413 -8.534,0l-175.786,-175.789c-1.706,-1.706 -1.706,-3.413 -1.706,-5.119c0,-1.706 0,-3.413 1.706,-5.12l175.787,-175.787c1.707,-1.706 3.413,-1.706 3.413,-1.706c1.707,0 3.413,0 3.413,1.706l37.547,35.839c1.707,1.706 1.707,6.827 0,8.533l-75.093,76.8c-5.12,5.12 -6.827,11.946 -3.413,18.774c3.413,6.827 8.534,10.24 15.36,10.24l281.6,0c1.706,0 5.12,0 5.12,3.413l0,51.201l-0.001,0z"/>
   </g>
  </g>
  <g id="svg_4"/>
  <g id="svg_5"/>
  <g id="svg_6"/>
  <g id="svg_7"/>
  <g id="svg_8"/>
  <g id="svg_9"/>
  <g id="svg_10"/>
  <g id="svg_11"/>
  <g id="svg_12"/>
  <g id="svg_13"/>
  <g id="svg_14"/>
  <g id="svg_15"/>
  <g id="svg_16"/>
  <g id="svg_17"/>
  <g id="svg_18"/>
 </g>
</svg>